<mxfile host="app.diagrams.net" modified="2024-05-29T12:09:26.518Z" agent="Mozilla/5.0 (Windows NT 10.0; Win64; x64) AppleWebKit/537.36 (KHTML, like Gecko) Chrome/125.0.0.0 Safari/537.36" etag="Hoo1s-0PVcjQ-qvsRjN-" version="24.3.0" type="device">
  <diagram id="C5RBs43oDa-KdzZeNtuy" name="Page-1">
    <mxGraphModel dx="1050" dy="522" grid="1" gridSize="10" guides="1" tooltips="1" connect="1" arrows="1" fold="1" page="1" pageScale="1" pageWidth="827" pageHeight="1169" math="0" shadow="0">
      <root>
        <mxCell id="WIyWlLk6GJQsqaUBKTNV-0" />
        <mxCell id="WIyWlLk6GJQsqaUBKTNV-1" parent="WIyWlLk6GJQsqaUBKTNV-0" />
        <mxCell id="VZNAay5Mo_Yk0KxpZM_I-5" value="" style="edgeStyle=orthogonalEdgeStyle;rounded=0;orthogonalLoop=1;jettySize=auto;html=1;" edge="1" parent="WIyWlLk6GJQsqaUBKTNV-1" source="VZNAay5Mo_Yk0KxpZM_I-0" target="VZNAay5Mo_Yk0KxpZM_I-4">
          <mxGeometry relative="1" as="geometry" />
        </mxCell>
        <mxCell id="VZNAay5Mo_Yk0KxpZM_I-0" value="Начало" style="strokeWidth=2;html=1;shape=mxgraph.flowchart.terminator;whiteSpace=wrap;fontSize=18;fontFamily=Times New Roman;" vertex="1" parent="WIyWlLk6GJQsqaUBKTNV-1">
          <mxGeometry x="380" y="20" width="90" height="50" as="geometry" />
        </mxCell>
        <mxCell id="VZNAay5Mo_Yk0KxpZM_I-1" value="Конец" style="strokeWidth=2;html=1;shape=mxgraph.flowchart.terminator;whiteSpace=wrap;fontSize=18;fontFamily=Times New Roman;" vertex="1" parent="WIyWlLk6GJQsqaUBKTNV-1">
          <mxGeometry x="380" y="740" width="90" height="50" as="geometry" />
        </mxCell>
        <mxCell id="VZNAay5Mo_Yk0KxpZM_I-7" value="" style="edgeStyle=orthogonalEdgeStyle;rounded=0;orthogonalLoop=1;jettySize=auto;html=1;" edge="1" parent="WIyWlLk6GJQsqaUBKTNV-1" source="VZNAay5Mo_Yk0KxpZM_I-4" target="VZNAay5Mo_Yk0KxpZM_I-6">
          <mxGeometry relative="1" as="geometry" />
        </mxCell>
        <mxCell id="VZNAay5Mo_Yk0KxpZM_I-4" value="cout &amp;lt;&amp;lt; &quot;Лабораторная работа №8 (Обратная польская запись)&quot; &amp;lt;&amp;lt; endl" style="shape=parallelogram;perimeter=parallelogramPerimeter;whiteSpace=wrap;html=1;fixedSize=1;fontSize=18;fontFamily=Times New Roman;strokeWidth=2;" vertex="1" parent="WIyWlLk6GJQsqaUBKTNV-1">
          <mxGeometry x="262.5" y="110" width="325" height="65" as="geometry" />
        </mxCell>
        <mxCell id="VZNAay5Mo_Yk0KxpZM_I-9" value="" style="edgeStyle=orthogonalEdgeStyle;rounded=0;orthogonalLoop=1;jettySize=auto;html=1;" edge="1" parent="WIyWlLk6GJQsqaUBKTNV-1" source="VZNAay5Mo_Yk0KxpZM_I-6" target="VZNAay5Mo_Yk0KxpZM_I-8">
          <mxGeometry relative="1" as="geometry" />
        </mxCell>
        <mxCell id="VZNAay5Mo_Yk0KxpZM_I-6" value="char mass[100], str[100];" style="whiteSpace=wrap;html=1;fontSize=18;fontFamily=Times New Roman;strokeWidth=2;" vertex="1" parent="WIyWlLk6GJQsqaUBKTNV-1">
          <mxGeometry x="322.5" y="220" width="205" height="42.5" as="geometry" />
        </mxCell>
        <mxCell id="VZNAay5Mo_Yk0KxpZM_I-11" value="" style="edgeStyle=orthogonalEdgeStyle;rounded=0;orthogonalLoop=1;jettySize=auto;html=1;" edge="1" parent="WIyWlLk6GJQsqaUBKTNV-1" source="VZNAay5Mo_Yk0KxpZM_I-8" target="VZNAay5Mo_Yk0KxpZM_I-10">
          <mxGeometry relative="1" as="geometry" />
        </mxCell>
        <mxCell id="VZNAay5Mo_Yk0KxpZM_I-8" value="cout &amp;lt;&amp;lt; &quot;Введите выражение: &quot;;" style="shape=parallelogram;perimeter=parallelogramPerimeter;whiteSpace=wrap;html=1;fixedSize=1;fontSize=18;fontFamily=Times New Roman;strokeWidth=2;" vertex="1" parent="WIyWlLk6GJQsqaUBKTNV-1">
          <mxGeometry x="277.5" y="300" width="295" height="46.25" as="geometry" />
        </mxCell>
        <mxCell id="VZNAay5Mo_Yk0KxpZM_I-13" value="" style="edgeStyle=orthogonalEdgeStyle;rounded=0;orthogonalLoop=1;jettySize=auto;html=1;" edge="1" parent="WIyWlLk6GJQsqaUBKTNV-1" source="VZNAay5Mo_Yk0KxpZM_I-10" target="VZNAay5Mo_Yk0KxpZM_I-12">
          <mxGeometry relative="1" as="geometry" />
        </mxCell>
        <mxCell id="VZNAay5Mo_Yk0KxpZM_I-10" value="cin.getline(mass, 100);" style="whiteSpace=wrap;html=1;fontSize=18;fontFamily=Times New Roman;strokeWidth=2;" vertex="1" parent="WIyWlLk6GJQsqaUBKTNV-1">
          <mxGeometry x="332.5" y="380" width="185" height="40.63" as="geometry" />
        </mxCell>
        <mxCell id="VZNAay5Mo_Yk0KxpZM_I-15" value="" style="edgeStyle=orthogonalEdgeStyle;rounded=0;orthogonalLoop=1;jettySize=auto;html=1;" edge="1" parent="WIyWlLk6GJQsqaUBKTNV-1" source="VZNAay5Mo_Yk0KxpZM_I-12" target="VZNAay5Mo_Yk0KxpZM_I-14">
          <mxGeometry relative="1" as="geometry" />
        </mxCell>
        <mxCell id="VZNAay5Mo_Yk0KxpZM_I-12" value="cout &lt;&lt; &quot;До преобразования:\n&quot; &lt;&lt; mass &lt;&lt; endl;&#xa;    cout &lt;&lt; &quot;После преобразования:\n&quot;;" style="shape=parallelogram;perimeter=parallelogramPerimeter;whiteSpace=wrap;html=1;fixedSize=1;fontSize=18;fontFamily=Times New Roman;strokeWidth=2;" vertex="1" parent="WIyWlLk6GJQsqaUBKTNV-1">
          <mxGeometry x="212.5" y="460" width="425" height="69.05" as="geometry" />
        </mxCell>
        <mxCell id="VZNAay5Mo_Yk0KxpZM_I-17" value="" style="edgeStyle=orthogonalEdgeStyle;rounded=0;orthogonalLoop=1;jettySize=auto;html=1;" edge="1" parent="WIyWlLk6GJQsqaUBKTNV-1" source="VZNAay5Mo_Yk0KxpZM_I-14" target="VZNAay5Mo_Yk0KxpZM_I-16">
          <mxGeometry relative="1" as="geometry" />
        </mxCell>
        <mxCell id="VZNAay5Mo_Yk0KxpZM_I-14" value="ToOPZ(mass, str);" style="shape=process;whiteSpace=wrap;html=1;backgroundOutline=1;fontSize=18;fontFamily=Times New Roman;strokeWidth=2;" vertex="1" parent="WIyWlLk6GJQsqaUBKTNV-1">
          <mxGeometry x="332.5" y="570" width="185" height="46.43" as="geometry" />
        </mxCell>
        <mxCell id="VZNAay5Mo_Yk0KxpZM_I-18" value="" style="edgeStyle=orthogonalEdgeStyle;rounded=0;orthogonalLoop=1;jettySize=auto;html=1;" edge="1" parent="WIyWlLk6GJQsqaUBKTNV-1" source="VZNAay5Mo_Yk0KxpZM_I-16" target="VZNAay5Mo_Yk0KxpZM_I-1">
          <mxGeometry relative="1" as="geometry" />
        </mxCell>
        <mxCell id="VZNAay5Mo_Yk0KxpZM_I-16" value="CheckDel(str);" style="shape=process;whiteSpace=wrap;html=1;backgroundOutline=1;fontSize=18;fontFamily=Times New Roman;strokeWidth=2;" vertex="1" parent="WIyWlLk6GJQsqaUBKTNV-1">
          <mxGeometry x="331.25" y="660" width="187.5" height="43.57" as="geometry" />
        </mxCell>
      </root>
    </mxGraphModel>
  </diagram>
</mxfile>
